<svg width="67" height="184" viewBox="0 0 67 184" fill="none" xmlns="http://www.w3.org/2000/svg">
<g clip-path="url(#clip0_1793_4)">
<path fill-rule="evenodd" clip-rule="evenodd" d="M33.333 0.330994C23.661 0.330994 0 30.38 0 86.084C0 142.363 20.694 180.514 21.576 182.107L22.433 183.662H44.233L45.091 182.107C45.973 180.514 66.666 142.363 66.666 86.084C66.666 30.38 43.006 0.330994 33.333 0.330994ZM40.554 177.748H36.364V157.05H30.303V177.748H26.112C23.384 172.266 14.382 152.624 9.424 124.26C14.067 131.192 21.097 138.596 31.785 144.808C43.545 151.642 46.379 160.204 46.969 162.665C44.197 170.138 41.76 175.327 40.554 177.748ZM49.891 154.185C47.339 149.773 42.836 144.344 34.888 139.722C10.954 125.818 7.176 105.64 6.645 101.574C6.394 98.082 6.239 94.49 6.158 90.827C10.494 98.683 18.179 107.651 31.83 115.262C51.3 126.119 54.576 136.866 54.633 137.054C53.145 143.386 51.518 149.129 49.891 154.185ZM34.836 110.078C6.267 94.147 6.615 71.298 6.642 71.298H6.636C9.615 32.857 23.406 14.193 30.303 8.18399V100.868H36.364V8.18399C44.121 14.942 60.606 39.516 60.606 86.084C60.606 101.622 58.933 115.8 56.542 128.181C53.033 123.31 46.585 116.632 34.836 110.078Z" fill="#5DA8EF"/>
</g>
<defs>
<clipPath id="clip0_1793_4">
<rect width="67" height="184" fill="white"/>
</clipPath>
</defs>
</svg>
