<svg width="77" height="64" viewBox="0 0 77 64" fill="none" xmlns="http://www.w3.org/2000/svg">
<g clip-path="url(#clip0_1793_8)">
<path fill-rule="evenodd" clip-rule="evenodd" d="M69.131 10.998L76.825 9.46C76.825 9.46 70.379 16.751 69.131 17.147C69.118 17.151 69.105 17.136 69.092 17.137C68.927 20.692 69.131 21.758 69.131 21.758C54.424 85.134 0.304001 57.116 0.304001 57.116C19.994 57.637 21.75 49.429 21.75 49.429C10.217 47.678 7.994 40.207 7.994 40.207C11.915 41.999 14.108 38.669 14.108 38.669C1.661 35.435 3.409 23.295 3.409 23.295C5.488 25.207 8.887 25.935 10.911 26.209C9.503 24.566 -2.113 10.56 4.937 3.312C4.937 3.312 13.421 18.657 35.888 20.124L37.39 19.747C37.16 18.659 37.034 17.534 37.034 16.377C37.034 7.464 44.219 0.235001 53.082 0.235001C63.767 0.235001 66.074 6.385 66.074 6.385L73.716 1.773C73.716 1.773 72.878 9.479 69.131 10.998Z" fill="#EBEBEB"/>
</g>
<defs>
<clipPath id="clip0_1793_8">
<rect width="77" height="64" fill="white"/>
</clipPath>
</defs>
</svg>
