<svg width="78" height="67" viewBox="0 0 78 67" fill="none" xmlns="http://www.w3.org/2000/svg">
<g clip-path="url(#clip0_1793_10)">
<path fill-rule="evenodd" clip-rule="evenodd" d="M45.045 15.698C45.006 17.602 47.409 16.131 49.63 17.235C51.851 18.34 56.269 19.597 52.687 29.534C52.687 29.534 47.677 44.506 43.517 43.369C43.517 43.369 37.062 43.627 35.875 29.534C34.688 15.438 32.278 1.128 25.176 1.861C18.073 2.596 7.76801 9.537 0.769012 18.771C0.769012 18.771 2.70001 23.595 5.30601 23.384C7.91301 23.173 7.75101 19.379 9.89201 20.309C12.032 21.24 15.346 21.088 17.534 34.144C19.721 47.203 22.977 54.072 26.704 60.279C30.431 66.487 34.214 66.487 37.403 66.487C40.592 66.487 50.82 59.08 60.329 46.443C69.839 33.806 77.18 18.58 77.18 15.698C77.18 12.816 79.871 2.195 69.5 0.324997C59.129 -1.548 45.182 8.93 45.045 15.698Z" fill="#EBEBEB"/>
</g>
<defs>
<clipPath id="clip0_1793_10">
<rect width="78" height="67" fill="white"/>
</clipPath>
</defs>
</svg>
